<svg width="38" height="38" viewBox="0 0 38 38" fill="none" xmlns="http://www.w3.org/2000/svg">
  <rect width="38" height="38" rx="6" fill="#F1E9C9"/>
  <path d="M27.2414 13.6203L26.193 19.3695C26.1065 19.8445 25.8561 20.274 25.4855 20.5834C25.1149 20.8927 24.6476 21.0623 24.1648 21.0625H14.1961L14.5742 23.125H23.8125C24.2204 23.125 24.6192 23.246 24.9584 23.4726C25.2975 23.6992 25.5619 24.0213 25.718 24.3982C25.8741 24.7751 25.915 25.1898 25.8354 25.5899C25.7558 25.99 25.5594 26.3575 25.2709 26.6459C24.9825 26.9344 24.615 27.1308 24.2149 27.2104C23.8148 27.29 23.4001 27.2491 23.0232 27.093C22.6463 26.9369 22.3242 26.6725 22.0976 26.3334C21.871 25.9942 21.75 25.5954 21.75 25.1875C21.7501 24.9531 21.7908 24.7205 21.8703 24.5H16.8172C16.8967 24.7205 16.9374 24.9531 16.9375 25.1875C16.9381 25.5203 16.8582 25.8482 16.7046 26.1434C16.551 26.4386 16.3282 26.6923 16.0553 26.8827C15.7824 27.0732 15.4675 27.1947 15.1375 27.2371C14.8074 27.2794 14.472 27.2413 14.1599 27.1259C13.8477 27.0105 13.5682 26.8213 13.345 26.5745C13.1219 26.3276 12.9617 26.0304 12.8783 25.7083C12.7949 25.3861 12.7907 25.0486 12.866 24.7244C12.9414 24.4003 13.094 24.0992 13.3109 23.8469L10.9305 10.75H9.375C9.19266 10.75 9.0178 10.6776 8.88886 10.5486C8.75993 10.4197 8.6875 10.2448 8.6875 10.0625C8.6875 9.88016 8.75993 9.7053 8.88886 9.57636C9.0178 9.44743 9.19266 9.375 9.375 9.375H10.9305C11.2514 9.3757 11.562 9.48864 11.8084 9.69424C12.0548 9.89985 12.2215 10.1852 12.2797 10.5008L12.7008 12.8125H26.5625C26.6629 12.8127 26.7619 12.8352 26.8526 12.8783C26.9432 12.9214 27.0232 12.984 27.0867 13.0617C27.1532 13.137 27.2017 13.2264 27.2285 13.3232C27.2553 13.42 27.2597 13.5216 27.2414 13.6203Z" fill="#C47F17"/>
  </svg>
  